{
  "accessors": [
    {
      "bufferView": 2,
      "componentType": 5126,
      "count": 65533,
      "max": [
        0.7350339293479919,
        4.155190467834473,
        1.5700368881225586
      ],
      "min": [
        -1.4665154218673706,
        -3.5921430587768555,
        -1.8595393896102905
      ],
      "type": "VEC3"
    },
    {
      "bufferView": 2,
      "byteOffset": 786396,
      "componentType": 5126,
      "count": 65533,
      "max": [
        1.0,
        1.0,
        1.0
      ],
      "min": [
        -1.0,
        -1.0,
        -1.0
      ],
      "type": "VEC3"
    },
    {
      "bufferView": 1,
      "componentType": 5126,
      "count": 65533,
      "max": [
        0.7989721298217773,
        1.0
      ],
      "min": [
        0.0,
        0.0
      ],
      "type": "VEC2"
    },
    {
      "bufferView": 0,
      "componentType": 5125,
      "count": 118542,
      "type": "SCALAR"
    },
    {
      "bufferView": 2,
      "byteOffset": 1572792,
      "componentType": 5126,
      "count": 65532,
      "max": [
        0.6858108639717102,
        1.4455945491790771,
        1.5213247537612915
      ],
      "min": [
        -1.3665605783462524,
        -3.497870683670044,
        -1.1366560459136963
      ],
      "type": "VEC3"
    },
    {
      "bufferView": 2,
      "byteOffset": 2359176,
      "componentType": 5126,
      "count": 65532,
      "max": [
        1.0,
        1.0,
        1.0
      ],
      "min": [
        -1.0,
        -1.0,
        -1.0
      ],
      "type": "VEC3"
    },
    {
      "bufferView": 1,
      "byteOffset": 524264,
      "componentType": 5126,
      "count": 65532,
      "max": [
        0.7500001192092896,
        1.0
      ],
      "min": [
        0.375,
        0.5
      ],
      "type": "VEC2"
    },
    {
      "bufferView": 0,
      "byteOffset": 474168,
      "componentType": 5125,
      "count": 102168,
      "type": "SCALAR"
    },
    {
      "bufferView": 2,
      "byteOffset": 3145560,
      "componentType": 5126,
      "count": 4614,
      "max": [
        -0.3919781446456909,
        0.772247314453125,
        0.4682582914829254
      ],
      "min": [
        -0.3919781446456909,
        -0.5882385969161987,
        -0.41901132464408875
      ],
      "type": "VEC3"
    },
    {
      "bufferView": 2,
      "byteOffset": 3200928,
      "componentType": 5126,
      "count": 4614,
      "max": [
        -1.0,
        0.0,
        7.829069545550738e-06
      ],
      "min": [
        -1.0,
        0.0,
        -7.82906045060372e-06
      ],
      "type": "VEC3"
    },
    {
      "bufferView": 1,
      "byteOffset": 1048520,
      "componentType": 5126,
      "count": 4614,
      "max": [
        0.7500001192092896,
        0.7388025522232056
      ],
      "min": [
        0.7499998211860657,
        0.5712347030639648
      ],
      "type": "VEC2"
    },
    {
      "bufferView": 0,
      "byteOffset": 882840,
      "componentType": 5125,
      "count": 7275,
      "type": "SCALAR"
    },
    {
      "bufferView": 2,
      "byteOffset": 3256296,
      "componentType": 5126,
      "count": 6328,
      "max": [
        0.683883011341095,
        3.4529411792755127,
        1.5103942155838013
      ],
      "min": [
        -1.3570505380630493,
        -3.2173643112182617,
        -0.8489063382148743
      ],
      "type": "VEC3"
    },
    {
      "bufferView": 2,
      "byteOffset": 3332232,
      "componentType": 5126,
      "count": 6328,
      "max": [
        1.0,
        1.0,
        1.0
      ],
      "min": [
        -1.0,
        -1.0,
        -1.0
      ],
      "type": "VEC3"
    },
    {
      "bufferView": 1,
      "byteOffset": 1085432,
      "componentType": 5126,
      "count": 6328,
      "max": [
        0.7500001192092896,
        0.9987251162528992
      ],
      "min": [
        0.41006338596343994,
        0.4192051589488983
      ],
      "type": "VEC2"
    },
    {
      "bufferView": 0,
      "byteOffset": 911940,
      "componentType": 5125,
      "count": 9708,
      "type": "SCALAR"
    },
    {
      "bufferView": 2,
      "byteOffset": 3408168,
      "componentType": 5126,
      "count": 5700,
      "max": [
        0.6839484572410583,
        3.4529411792755127,
        1.5103942155838013
      ],
      "min": [
        -1.3570505380630493,
        -3.21736478805542,
        -0.8489063382148743
      ],
      "type": "VEC3"
    },
    {
      "bufferView": 2,
      "byteOffset": 3476568,
      "componentType": 5126,
      "count": 5700,
      "max": [
        1.0,
        0.12338808178901672,
        1.0
      ],
      "min": [
        -1.0,
        -5.922152013226878e-06,
        -1.0
      ],
      "type": "VEC3"
    },
    {
      "bufferView": 1,
      "byteOffset": 1136056,
      "componentType": 5126,
      "count": 5700,
      "max": [
        0.7500001192092896,
        0.9987250566482544
      ],
      "min": [
        0.4100632965564728,
        0.41920512914657593
      ],
      "type": "VEC2"
    },
    {
      "bufferView": 0,
      "byteOffset": 950772,
      "componentType": 5125,
      "count": 8550,
      "type": "SCALAR"
    },
    {
      "bufferView": 2,
      "byteOffset": 3544968,
      "componentType": 5126,
      "count": 114,
      "max": [
        0.6735602617263794,
        2.6658384799957275,
        0.33473286032676697
      ],
      "min": [
        -0.5119076371192932,
        -3.316481590270996,
        -1.130920648574829
      ],
      "type": "VEC3"
    },
    {
      "bufferView": 2,
      "byteOffset": 3546336,
      "componentType": 5126,
      "count": 114,
      "max": [
        1.0,
        0.0,
        2.1529197056224803e-06
      ],
      "min": [
        -1.0,
        0.0,
        -2.3120371679397067e-06
      ],
      "type": "VEC3"
    },
    {
      "bufferView": 1,
      "byteOffset": 1181656,
      "componentType": 5126,
      "count": 114,
      "max": [
        0.7500001192092896,
        0.683923602104187
      ],
      "min": [
        0.3976735770702362,
        0.5007169246673584
      ],
      "type": "VEC2"
    },
    {
      "bufferView": 0,
      "byteOffset": 984972,
      "componentType": 5125,
      "count": 234,
      "type": "SCALAR"
    }
  ],
  "asset": {
    "extras": {
      "author": "Artemis (https://sketchfab.com/ArtemMaksi)",
      "license": "CC-BY-4.0 (http://creativecommons.org/licenses/by/4.0/)",
      "source": "https://sketchfab.com/3d-models/cyberpunk-skyscraper-5392c4e6daf944b3a17b43a58b55fe08",
      "title": "Cyberpunk skyscraper"
    },
    "generator": "Sketchfab-15.8.0",
    "version": "2.0"
  },
  "bufferViews": [
    {
      "buffer": 0,
      "byteLength": 985908,
      "name": "floatBufferViews",
      "target": 34963
    },
    {
      "buffer": 0,
      "byteLength": 1182568,
      "byteOffset": 985908,
      "byteStride": 8,
      "name": "floatBufferViews",
      "target": 34962
    },
    {
      "buffer": 0,
      "byteLength": 3547704,
      "byteOffset": 2168476,
      "byteStride": 12,
      "name": "floatBufferViews",
      "target": 34962
    }
  ],
  "buffers": [
    {
      "byteLength": 5716180,
      "uri": "scene.bin"
    }
  ],
  "extensionsUsed": [
    "KHR_materials_emissive_strength"
  ],
  "materials": [
    {
      "doubleSided": true,
      "name": "Material.006",
      "pbrMetallicRoughness": {
        "baseColorFactor": [
          0.16460807970228097,
          0.16460807970228097,
          0.16460807970228097,
          1.0
        ]
      }
    },
    {
      "doubleSided": true,
      "extensions": {
        "KHR_materials_emissive_strength": {
          "emissiveStrength": 1.6914337262742132
        }
      },
      "name": "Material.008",
      "pbrMetallicRoughness": {
        "baseColorFactor": [
          0.030152376792982615,
          0.030152376792982615,
          0.030152376792982615,
          1.0
        ],
        "metallicFactor": 0.0,
        "roughnessFactor": 0.169291
      }
    },
    {
      "doubleSided": true,
      "emissiveFactor": [
        0.9600029257232022,
        0.0,
        0.0
      ],
      "name": "Material.007"
    },
    {
      "doubleSided": true,
      "emissiveFactor": [
        1.0,
        0.0233388,
        0.0
      ],
      "name": "Material.011"
    }
  ],
  "meshes": [
    {
      "name": "Object_0",
      "primitives": [
        {
          "attributes": {
            "NORMAL": 1,
            "POSITION": 0,
            "TEXCOORD_0": 2
          },
          "indices": 3,
          "material": 0,
          "mode": 4
        }
      ]
    },
    {
      "name": "Object_1",
      "primitives": [
        {
          "attributes": {
            "NORMAL": 5,
            "POSITION": 4,
            "TEXCOORD_0": 6
          },
          "indices": 7,
          "material": 0,
          "mode": 4
        }
      ]
    },
    {
      "name": "Object_2",
      "primitives": [
        {
          "attributes": {
            "NORMAL": 9,
            "POSITION": 8,
            "TEXCOORD_0": 10
          },
          "indices": 11,
          "material": 0,
          "mode": 4
        }
      ]
    },
    {
      "name": "Object_3",
      "primitives": [
        {
          "attributes": {
            "NORMAL": 13,
            "POSITION": 12,
            "TEXCOORD_0": 14
          },
          "indices": 15,
          "material": 1,
          "mode": 4
        }
      ]
    },
    {
      "name": "Object_4",
      "primitives": [
        {
          "attributes": {
            "NORMAL": 17,
            "POSITION": 16,
            "TEXCOORD_0": 18
          },
          "indices": 19,
          "material": 2,
          "mode": 4
        }
      ]
    },
    {
      "name": "Object_5",
      "primitives": [
        {
          "attributes": {
            "NORMAL": 21,
            "POSITION": 20,
            "TEXCOORD_0": 22
          },
          "indices": 23,
          "material": 3,
          "mode": 4
        }
      ]
    }
  ],
  "nodes": [
    {
      "children": [
        1
      ],
      "matrix": [
        1.0,
        0.0,
        0.0,
        0.0,
        0.0,
        2.220446049250313e-16,
        -1.0,
        0.0,
        0.0,
        1.0,
        2.220446049250313e-16,
        0.0,
        0.0,
        0.0,
        0.0,
        1.0
      ],
      "name": "Sketchfab_model"
    },
    {
      "children": [
        2
      ],
      "name": "root"
    },
    {
      "children": [
        3
      ],
      "matrix": [
        1.0,
        0.0,
        0.0,
        0.0,
        0.0,
        2.220446049250313e-16,
        1.0,
        0.0,
        0.0,
        -1.0,
        2.220446049250313e-16,
        0.0,
        0.0,
        0.0,
        0.0,
        1.0
      ],
      "name": "GLTF_SceneRootNode"
    },
    {
      "children": [
        4,
        5,
        6,
        7,
        8,
        9
      ],
      "matrix": [
        0.6399962306022644,
        0.0,
        0.0,
        0.0,
        0.0,
        1.2468937635421753,
        0.0,
        0.0,
        0.0,
        0.0,
        0.6399962306022644,
        0.0,
        0.2961033582687378,
        4.769726276397705,
        0.11302007734775543,
        1.0
      ],
      "name": "Cube.014_RLExtr.006_RLExtr.001_0"
    },
    {
      "mesh": 0,
      "name": "Object_4"
    },
    {
      "mesh": 1,
      "name": "Object_5"
    },
    {
      "mesh": 2,
      "name": "Object_6"
    },
    {
      "mesh": 3,
      "name": "Object_7"
    },
    {
      "mesh": 4,
      "name": "Object_8"
    },
    {
      "mesh": 5,
      "name": "Object_9"
    }
  ],
  "scene": 0,
  "scenes": [
    {
      "name": "Sketchfab_Scene",
      "nodes": [
        0
      ]
    }
  ]
}
