{
  "accessors": [
    {
      "bufferView": 2,
      "componentType": 5126,
      "count": 37806,
      "max": [
        0.9703044891357422,
        0.35602158308029175,
        0.3919908106327057
      ],
      "min": [
        -0.5371671915054321,
        -0.2222062349319458,
        -0.29723113775253296
      ],
      "type": "VEC3"
    },
    {
      "bufferView": 2,
      "byteOffset": 453672,
      "componentType": 5126,
      "count": 37806,
      "max": [
        0.9999185800552368,
        0.999998927116394,
        0.9999577403068542
      ],
      "min": [
        -0.999998152256012,
        -0.9999925494194031,
        -0.9999880790710449
      ],
      "type": "VEC3"
    },
    {
      "bufferView": 1,
      "componentType": 5126,
      "count": 37806,
      "max": [
        0.9996323585510254,
        0.9940647482872009
      ],
      "min": [
        1.0560966074990574e-05,
        3.7662455270037754e-06
      ],
      "type": "VEC2"
    },
    {
      "bufferView": 1,
      "byteOffset": 302448,
      "componentType": 5126,
      "count": 37806,
      "max": [
        0.9996323585510254,
        0.9940647482872009
      ],
      "min": [
        1.0560966074990574e-05,
        3.7662455270037754e-06
      ],
      "type": "VEC2"
    },
    {
      "bufferView": 1,
      "byteOffset": 604896,
      "componentType": 5126,
      "count": 37806,
      "max": [
        0.9996323585510254,
        0.9940647482872009
      ],
      "min": [
        1.0560966074990574e-05,
        3.7662455270037754e-06
      ],
      "type": "VEC2"
    },
    {
      "bufferView": 0,
      "componentType": 5125,
      "count": 190089,
      "type": "SCALAR"
    }
  ],
  "asset": {
    "extras": {
      "author": "Shane Bevin (https://sketchfab.com/spacebovine)",
      "license": "CC-BY-NC-SA-4.0 (http://creativecommons.org/licenses/by-nc-sa/4.0/)",
      "source": "https://sketchfab.com/3d-models/cyberpunk-car-0e4e4cc034b14bc6b1034c11ea06d18c",
      "title": "Cyberpunk car"
    },
    "generator": "Sketchfab-12.67.0",
    "version": "2.0"
  },
  "bufferViews": [
    {
      "buffer": 0,
      "byteLength": 760356,
      "name": "floatBufferViews",
      "target": 34963
    },
    {
      "buffer": 0,
      "byteLength": 907344,
      "byteOffset": 760356,
      "byteStride": 8,
      "name": "floatBufferViews",
      "target": 34962
    },
    {
      "buffer": 0,
      "byteLength": 907344,
      "byteOffset": 1667700,
      "byteStride": 12,
      "name": "floatBufferViews",
      "target": 34962
    }
  ],
  "buffers": [
    {
      "byteLength": 2575044,
      "uri": "scene.bin"
    }
  ],
  "extensionsUsed": [
    "KHR_materials_unlit"
  ],
  "images": [
    {
      "uri": "textures/material_0_baseColor.jpeg"
    }
  ],
  "materials": [
    {
      "extensions": {
        "KHR_materials_unlit": {}
      },
      "name": "material_0",
      "pbrMetallicRoughness": {
        "baseColorTexture": {
          "index": 0
        },
        "metallicFactor": 0.0
      }
    }
  ],
  "meshes": [
    {
      "name": "Object_0",
      "primitives": [
        {
          "attributes": {
            "NORMAL": 1,
            "POSITION": 0,
            "TEXCOORD_0": 2,
            "TEXCOORD_1": 3,
            "TEXCOORD_2": 4
          },
          "indices": 5,
          "material": 0,
          "mode": 4
        }
      ]
    }
  ],
  "nodes": [
    {
      "children": [
        1
      ],
      "matrix": [
        1.0,
        0.0,
        0.0,
        0.0,
        0.0,
        2.220446049250313e-16,
        -1.0,
        0.0,
        0.0,
        1.0,
        2.220446049250313e-16,
        0.0,
        0.0,
        0.0,
        0.0,
        1.0
      ],
      "name": "Sketchfab_model"
    },
    {
      "children": [
        2
      ],
      "name": "root"
    },
    {
      "children": [
        3
      ],
      "matrix": [
        1.0,
        0.0,
        0.0,
        0.0,
        0.0,
        2.220446049250313e-16,
        1.0,
        0.0,
        0.0,
        -1.0,
        2.220446049250313e-16,
        0.0,
        0.0,
        0.0,
        0.0,
        1.0
      ],
      "name": "GLTF_SceneRootNode"
    },
    {
      "children": [
        4
      ],
      "name": "_0"
    },
    {
      "mesh": 0,
      "name": "Object_4"
    }
  ],
  "samplers": [
    {
      "magFilter": 9729,
      "minFilter": 9987,
      "wrapS": 10497,
      "wrapT": 10497
    }
  ],
  "scene": 0,
  "scenes": [
    {
      "name": "Sketchfab_Scene",
      "nodes": [
        0
      ]
    }
  ],
  "textures": [
    {
      "sampler": 0,
      "source": 0
    }
  ]
}
