{
  "accessors": [
    {
      "bufferView": 2,
      "componentType": 5126,
      "count": 65532,
      "max": [
        0.1301921308040619,
        -0.05179072171449661,
        -0.14792732894420624
      ],
      "min": [
        -0.055594295263290405,
        -0.13105228543281555,
        -0.24017280340194702
      ],
      "type": "VEC3"
    },
    {
      "bufferView": 2,
      "byteOffset": 786384,
      "componentType": 5126,
      "count": 65532,
      "max": [
        0.9998137950897217,
        0.9999923706054688,
        0.999998152256012
      ],
      "min": [
        -0.9999901056289673,
        -0.9999855160713196,
        -0.9999497532844543
      ],
      "type": "VEC3"
    },
    {
      "bufferView": 1,
      "componentType": 5126,
      "count": 65532,
      "max": [
        0.9994297623634338,
        0.9994379878044128
      ],
      "min": [
        0.00048828125,
        0.004394650459289551
      ],
      "type": "VEC2"
    },
    {
      "bufferView": 0,
      "componentType": 5125,
      "count": 272643,
      "type": "SCALAR"
    },
    {
      "bufferView": 2,
      "byteOffset": 1572768,
      "componentType": 5126,
      "count": 65532,
      "max": [
        0.13565124571323395,
        -0.05193810164928436,
        -0.14175401628017426
      ],
      "min": [
        -0.0547618493437767,
        -0.1320832073688507,
        -0.2407042682170868
      ],
      "type": "VEC3"
    },
    {
      "bufferView": 2,
      "byteOffset": 2359152,
      "componentType": 5126,
      "count": 65532,
      "max": [
        0.9999402165412903,
        0.9999924898147583,
        0.9999740123748779
      ],
      "min": [
        -0.9998929500579834,
        -0.9999961256980896,
        -0.9999836683273315
      ],
      "type": "VEC3"
    },
    {
      "bufferView": 1,
      "byteOffset": 524256,
      "componentType": 5126,
      "count": 65532,
      "max": [
        0.9995060563087463,
        0.9995023608207703
      ],
      "min": [
        0.00048828125,
        0.0004884004592895508
      ],
      "type": "VEC2"
    },
    {
      "bufferView": 0,
      "byteOffset": 1090572,
      "componentType": 5125,
      "count": 242940,
      "type": "SCALAR"
    },
    {
      "bufferView": 2,
      "byteOffset": 3145536,
      "componentType": 5126,
      "count": 26964,
      "max": [
        0.1355525255203247,
        -0.05179072171449661,
        -0.14175401628017426
      ],
      "min": [
        -0.055524393916130066,
        -0.12969434261322021,
        -0.23970650136470795
      ],
      "type": "VEC3"
    },
    {
      "bufferView": 2,
      "byteOffset": 3469104,
      "componentType": 5126,
      "count": 26964,
      "max": [
        0.999566376209259,
        0.9999655485153198,
        0.999967634677887
      ],
      "min": [
        -0.9999001026153564,
        -0.9997326135635376,
        -0.9998478889465332
      ],
      "type": "VEC3"
    },
    {
      "bufferView": 1,
      "byteOffset": 1048512,
      "componentType": 5126,
      "count": 26964,
      "max": [
        0.9995028972625732,
        0.9995043873786926
      ],
      "min": [
        0.00048828125,
        0.0024415254592895508
      ],
      "type": "VEC2"
    },
    {
      "bufferView": 0,
      "byteOffset": 2062332,
      "componentType": 5125,
      "count": 73221,
      "type": "SCALAR"
    }
  ],
  "asset": {
    "extras": {
      "author": "les83machines (https://sketchfab.com/les83machines)",
      "license": "CC-BY-4.0 (http://creativecommons.org/licenses/by/4.0/)",
      "source": "https://sketchfab.com/3d-models/beetle-toy-car-5c2e39d9b3654acd94ad2dbb329577d8",
      "title": "BEETLE TOY CAR"
    },
    "generator": "Sketchfab-12.92.0",
    "version": "2.0"
  },
  "bufferViews": [
    {
      "buffer": 0,
      "byteLength": 2355216,
      "name": "floatBufferViews",
      "target": 34963
    },
    {
      "buffer": 0,
      "byteLength": 1264224,
      "byteOffset": 2355216,
      "byteStride": 8,
      "name": "floatBufferViews",
      "target": 34962
    },
    {
      "buffer": 0,
      "byteLength": 3792672,
      "byteOffset": 3619440,
      "byteStride": 12,
      "name": "floatBufferViews",
      "target": 34962
    }
  ],
  "buffers": [
    {
      "byteLength": 7412112,
      "uri": "scene.bin"
    }
  ],
  "extensionsUsed": [
    "KHR_materials_unlit"
  ],
  "images": [
    {
      "uri": "textures/default_tex0_baseColor.jpeg"
    }
  ],
  "materials": [
    {
      "extensions": {
        "KHR_materials_unlit": {}
      },
      "name": "default_tex0",
      "pbrMetallicRoughness": {
        "baseColorTexture": {
          "index": 0
        },
        "metallicFactor": 0.0
      }
    }
  ],
  "meshes": [
    {
      "name": "Object_0",
      "primitives": [
        {
          "attributes": {
            "NORMAL": 1,
            "POSITION": 0,
            "TEXCOORD_0": 2
          },
          "indices": 3,
          "material": 0,
          "mode": 4
        }
      ]
    },
    {
      "name": "Object_1",
      "primitives": [
        {
          "attributes": {
            "NORMAL": 5,
            "POSITION": 4,
            "TEXCOORD_0": 6
          },
          "indices": 7,
          "material": 0,
          "mode": 4
        }
      ]
    },
    {
      "name": "Object_2",
      "primitives": [
        {
          "attributes": {
            "NORMAL": 9,
            "POSITION": 8,
            "TEXCOORD_0": 10
          },
          "indices": 11,
          "material": 0,
          "mode": 4
        }
      ]
    }
  ],
  "nodes": [
    {
      "children": [
        1
      ],
      "matrix": [
        1.0,
        0.0,
        0.0,
        0.0,
        0.0,
        2.220446049250313e-16,
        -1.0,
        0.0,
        0.0,
        1.0,
        2.220446049250313e-16,
        0.0,
        0.0,
        0.0,
        0.0,
        1.0
      ],
      "name": "Sketchfab_model"
    },
    {
      "children": [
        2
      ],
      "name": "root"
    },
    {
      "children": [
        3
      ],
      "matrix": [
        1.0,
        0.0,
        0.0,
        0.0,
        0.0,
        2.220446049250313e-16,
        1.0,
        0.0,
        0.0,
        -1.0,
        2.220446049250313e-16,
        0.0,
        0.0,
        0.0,
        0.0,
        1.0
      ],
      "name": "GLTF_SceneRootNode"
    },
    {
      "children": [
        4,
        5,
        6
      ],
      "name": "_0"
    },
    {
      "mesh": 0,
      "name": "Object_4"
    },
    {
      "mesh": 1,
      "name": "Object_5"
    },
    {
      "mesh": 2,
      "name": "Object_6"
    }
  ],
  "samplers": [
    {
      "magFilter": 9729,
      "minFilter": 9729,
      "wrapS": 33071,
      "wrapT": 33071
    }
  ],
  "scene": 0,
  "scenes": [
    {
      "name": "Sketchfab_Scene",
      "nodes": [
        0
      ]
    }
  ],
  "textures": [
    {
      "sampler": 0,
      "source": 0
    }
  ]
}
