{
  "accessors": [
    {
      "bufferView": 2,
      "componentType": 5126,
      "count": 228,
      "max": [
        0.28884100914001465,
        2.1855859756469727,
        0.2501436769962311
      ],
      "min": [
        -21.248249053955078,
        -39.05540466308594,
        -0.2501436769962311
      ],
      "type": "VEC3"
    },
    {
      "bufferView": 2,
      "byteOffset": 2736,
      "componentType": 5126,
      "count": 228,
      "max": [
        0.866025447845459,
        1.0,
        1.0
      ],
      "min": [
        -0.8660255074501038,
        -1.0,
        -1.0
      ],
      "type": "VEC3"
    },
    {
      "bufferView": 1,
      "componentType": 5126,
      "count": 228,
      "max": [
        1.0,
        1.0
      ],
      "min": [
        0.0,
        -1.6179938316345215
      ],
      "type": "VEC2"
    },
    {
      "bufferView": 0,
      "componentType": 5125,
      "count": 432,
      "type": "SCALAR"
    },
    {
      "bufferView": 2,
      "byteOffset": 5472,
      "componentType": 5126,
      "count": 8,
      "max": [
        -5.5341339111328125,
        4.637445449829102,
        -0.9961929321289063
      ],
      "min": [
        -15.451314926147461,
        -41.75837707519531,
        -21.2921085357666
      ],
      "type": "VEC3"
    },
    {
      "bufferView": 2,
      "byteOffset": 5568,
      "componentType": 5126,
      "count": 8,
      "max": [
        1.0,
        0.0,
        0.0
      ],
      "min": [
        -1.0,
        0.0,
        0.0
      ],
      "type": "VEC3"
    },
    {
      "bufferView": 1,
      "byteOffset": 1824,
      "componentType": 5126,
      "count": 8,
      "max": [
        1.0,
        1.0
      ],
      "min": [
        0.0,
        0.0
      ],
      "type": "VEC2"
    },
    {
      "bufferView": 0,
      "byteOffset": 1728,
      "componentType": 5125,
      "count": 12,
      "type": "SCALAR"
    },
    {
      "bufferView": 2,
      "byteOffset": 5664,
      "componentType": 5126,
      "count": 1164,
      "max": [
        1.0767478942871094,
        2.2062606811523438,
        0.8045310974121094
      ],
      "min": [
        -22.064294815063477,
        -39.079376220703125,
        -0.828764021396637
      ],
      "type": "VEC3"
    },
    {
      "bufferView": 2,
      "byteOffset": 19632,
      "componentType": 5126,
      "count": 1164,
      "max": [
        0.9784938097000122,
        1.0,
        0.9992255568504333
      ],
      "min": [
        -0.9784938097000122,
        -1.0,
        -0.9992254972457886
      ],
      "type": "VEC3"
    },
    {
      "bufferView": 1,
      "byteOffset": 1888,
      "componentType": 5126,
      "count": 1164,
      "max": [
        3.9269909858703613,
        1.0
      ],
      "min": [
        0.0,
        -0.5707963705062866
      ],
      "type": "VEC2"
    },
    {
      "bufferView": 0,
      "byteOffset": 1776,
      "componentType": 5125,
      "count": 2592,
      "type": "SCALAR"
    },
    {
      "bufferView": 2,
      "byteOffset": 33600,
      "componentType": 5126,
      "count": 1030,
      "max": [
        -5.5826568603515625,
        4.143943786621094,
        -0.7697315216064453
      ],
      "min": [
        -15.385340690612793,
        -41.564842224121094,
        -26.98309326171875
      ],
      "type": "VEC3"
    },
    {
      "bufferView": 2,
      "byteOffset": 45960,
      "componentType": 5126,
      "count": 1030,
      "max": [
        1.0,
        1.0,
        1.0
      ],
      "min": [
        -1.0,
        -1.0,
        -1.0
      ],
      "type": "VEC3"
    },
    {
      "bufferView": 1,
      "byteOffset": 11200,
      "componentType": 5126,
      "count": 1030,
      "max": [
        1.0,
        1.0
      ],
      "min": [
        0.0,
        0.0
      ],
      "type": "VEC2"
    },
    {
      "bufferView": 0,
      "byteOffset": 12144,
      "componentType": 5125,
      "count": 1698,
      "type": "SCALAR"
    },
    {
      "bufferView": 2,
      "byteOffset": 58320,
      "componentType": 5126,
      "count": 628,
      "max": [
        -4.570058822631836,
        5.103981018066406,
        -0.6542177200317383
      ],
      "min": [
        -16.403961181640625,
        -42.26603698730469,
        -21.514240264892578
      ],
      "type": "VEC3"
    },
    {
      "bufferView": 2,
      "byteOffset": 65856,
      "componentType": 5126,
      "count": 628,
      "max": [
        1.0,
        1.0,
        1.0
      ],
      "min": [
        -1.0,
        -1.0,
        -1.0
      ],
      "type": "VEC3"
    },
    {
      "bufferView": 1,
      "byteOffset": 19440,
      "componentType": 5126,
      "count": 628,
      "max": [
        1.0,
        1.0
      ],
      "min": [
        0.0,
        0.0
      ],
      "type": "VEC2"
    },
    {
      "bufferView": 0,
      "byteOffset": 18936,
      "componentType": 5125,
      "count": 1248,
      "type": "SCALAR"
    },
    {
      "bufferView": 2,
      "byteOffset": 73392,
      "componentType": 5126,
      "count": 368,
      "max": [
        -0.30763816833496094,
        9.008583068847656,
        -21.82529640197754
      ],
      "min": [
        -20.75295639038086,
        -45.79981994628906,
        -24.42255210876465
      ],
      "type": "VEC3"
    },
    {
      "bufferView": 2,
      "byteOffset": 77808,
      "componentType": 5126,
      "count": 368,
      "max": [
        1.0,
        1.0,
        1.0
      ],
      "min": [
        -1.0,
        -1.0,
        -1.0
      ],
      "type": "VEC3"
    },
    {
      "bufferView": 1,
      "byteOffset": 24464,
      "componentType": 5126,
      "count": 368,
      "max": [
        10.091261863708496,
        3.8593297004699707
      ],
      "min": [
        -0.7860230803489685,
        -0.19825077056884766
      ],
      "type": "VEC2"
    },
    {
      "bufferView": 0,
      "byteOffset": 23928,
      "componentType": 5125,
      "count": 636,
      "type": "SCALAR"
    },
    {
      "bufferView": 2,
      "byteOffset": 82224,
      "componentType": 5126,
      "count": 1848,
      "max": [
        -8.466879844665527,
        1.9124298095703125,
        -21.994159698486328
      ],
      "min": [
        -12.382659912109375,
        -3.0865020751953125,
        -67.05052185058594
      ],
      "type": "VEC3"
    },
    {
      "bufferView": 2,
      "byteOffset": 104400,
      "componentType": 5126,
      "count": 1848,
      "max": [
        1.0,
        1.0,
        1.0
      ],
      "min": [
        -1.0,
        -1.0,
        -1.0
      ],
      "type": "VEC3"
    },
    {
      "bufferView": 1,
      "byteOffset": 27408,
      "componentType": 5126,
      "count": 1848,
      "max": [
        0.16596198081970215,
        1.5073894262313843
      ],
      "min": [
        -0.5447587966918945,
        -4.898482322692871
      ],
      "type": "VEC2"
    },
    {
      "bufferView": 0,
      "byteOffset": 26472,
      "componentType": 5125,
      "count": 3552,
      "type": "SCALAR"
    },
    {
      "bufferView": 2,
      "byteOffset": 126576,
      "componentType": 5126,
      "count": 54,
      "max": [
        -7.74428653717041,
        -2.1175384521484375,
        -9.422256469726563
      ],
      "min": [
        -13.193526268005371,
        -7.847204208374023,
        -70.64256286621094
      ],
      "type": "VEC3"
    },
    {
      "bufferView": 2,
      "byteOffset": 127224,
      "componentType": 5126,
      "count": 54,
      "max": [
        1.0,
        0.9510565996170044,
        1.0
      ],
      "min": [
        -1.0,
        -0.9510566592216492,
        -1.0
      ],
      "type": "VEC3"
    },
    {
      "bufferView": 1,
      "byteOffset": 42192,
      "componentType": 5126,
      "count": 54,
      "max": [
        0.3672696053981781,
        0.9620686769485474
      ],
      "min": [
        0.26929426193237305,
        0.05152761936187744
      ],
      "type": "VEC2"
    },
    {
      "bufferView": 0,
      "byteOffset": 40680,
      "componentType": 5125,
      "count": 120,
      "type": "SCALAR"
    },
    {
      "bufferView": 2,
      "byteOffset": 127872,
      "componentType": 5126,
      "count": 486,
      "max": [
        -0.24184226989746094,
        9.795730590820313,
        -17.388620376586914
      ],
      "min": [
        -20.713214874267578,
        -45.892333984375,
        -22.693782806396484
      ],
      "type": "VEC3"
    },
    {
      "bufferView": 2,
      "byteOffset": 133704,
      "componentType": 5126,
      "count": 486,
      "max": [
        1.0,
        1.0,
        1.0
      ],
      "min": [
        -1.0,
        -1.0,
        -1.0
      ],
      "type": "VEC3"
    },
    {
      "bufferView": 1,
      "byteOffset": 42624,
      "componentType": 5126,
      "count": 486,
      "max": [
        1.0,
        1.0
      ],
      "min": [
        0.0,
        -1.3561944961547852
      ],
      "type": "VEC2"
    },
    {
      "bufferView": 0,
      "byteOffset": 41160,
      "componentType": 5125,
      "count": 756,
      "type": "SCALAR"
    },
    {
      "bufferView": 2,
      "byteOffset": 139536,
      "componentType": 5126,
      "count": 12,
      "max": [
        -5.0700578689575195,
        4.687784194946289,
        -1.0374832153320313
      ],
      "min": [
        -15.584774017333984,
        -41.82805633544922,
        -21.18807029724121
      ],
      "type": "VEC3"
    },
    {
      "bufferView": 2,
      "byteOffset": 139680,
      "componentType": 5126,
      "count": 12,
      "max": [
        1.0,
        0.0,
        0.0
      ],
      "min": [
        -1.0,
        0.0,
        0.0
      ],
      "type": "VEC3"
    },
    {
      "bufferView": 1,
      "byteOffset": 46512,
      "componentType": 5126,
      "count": 12,
      "max": [
        0.9559022188186646,
        0.7744179964065552
      ],
      "min": [
        -0.006805777549743652,
        0.3560206890106201
      ],
      "type": "VEC2"
    },
    {
      "bufferView": 0,
      "byteOffset": 44184,
      "componentType": 5125,
      "count": 18,
      "type": "SCALAR"
    }
  ],
  "asset": {
    "extras": {
      "author": "AndersonCardoso (https://sketchfab.com/AndersonCardoso)",
      "license": "CC-BY-4.0 (http://creativecommons.org/licenses/by/4.0/)",
      "source": "https://sketchfab.com/3d-models/outdoor-a76e89422d8f45e0ade55eb9b51b7e01",
      "title": "Outdoor"
    },
    "generator": "Sketchfab-12.66.0",
    "version": "2.0"
  },
  "bufferViews": [
    {
      "buffer": 0,
      "byteLength": 44256,
      "name": "floatBufferViews",
      "target": 34963
    },
    {
      "buffer": 0,
      "byteLength": 46608,
      "byteOffset": 44256,
      "byteStride": 8,
      "name": "floatBufferViews",
      "target": 34962
    },
    {
      "buffer": 0,
      "byteLength": 139824,
      "byteOffset": 90864,
      "byteStride": 12,
      "name": "floatBufferViews",
      "target": 34962
    }
  ],
  "buffers": [
    {
      "byteLength": 230688,
      "uri": "scene.bin"
    }
  ],
  "images": [
    {
      "uri": "textures/lamp_baseColor.jpeg"
    },
    {
      "uri": "textures/folha_inv_baseColor.jpeg"
    },
    {
      "uri": "textures/base_lamp_baseColor.png"
    },
    {
      "uri": "textures/base_1_baseColor.jpeg"
    },
    {
      "uri": "textures/andaime_baseColor.jpeg"
    },
    {
      "uri": "textures/escada_baseColor.jpeg"
    },
    {
      "uri": "textures/aste_baseColor.jpeg"
    },
    {
      "uri": "textures/corrimo_baseColor.jpeg"
    },
    {
      "uri": "textures/folha_baseColor.jpeg"
    }
  ],
  "materials": [
    {
      "doubleSided": true,
      "name": "lamp",
      "pbrMetallicRoughness": {
        "baseColorTexture": {
          "index": 0
        },
        "metallicFactor": 0.0,
        "roughnessFactor": 0.6
      }
    },
    {
      "doubleSided": true,
      "name": "folha_inv",
      "pbrMetallicRoughness": {
        "baseColorTexture": {
          "index": 1
        },
        "metallicFactor": 0.0,
        "roughnessFactor": 0.6
      }
    },
    {
      "doubleSided": true,
      "name": "base_lamp",
      "pbrMetallicRoughness": {
        "baseColorTexture": {
          "index": 2
        },
        "metallicFactor": 0.0,
        "roughnessFactor": 0.6
      }
    },
    {
      "doubleSided": true,
      "name": "Base_folha",
      "pbrMetallicRoughness": {
        "baseColorTexture": {
          "index": 2
        },
        "metallicFactor": 0.0,
        "roughnessFactor": 0.6
      }
    },
    {
      "doubleSided": true,
      "name": "base_1",
      "pbrMetallicRoughness": {
        "baseColorTexture": {
          "index": 3
        },
        "metallicFactor": 0.0,
        "roughnessFactor": 0.6
      }
    },
    {
      "doubleSided": true,
      "name": "andaime",
      "pbrMetallicRoughness": {
        "baseColorTexture": {
          "index": 4
        },
        "metallicFactor": 0.0,
        "roughnessFactor": 0.6
      }
    },
    {
      "doubleSided": true,
      "name": "escada",
      "pbrMetallicRoughness": {
        "baseColorTexture": {
          "index": 5
        },
        "metallicFactor": 0.0,
        "roughnessFactor": 0.6
      }
    },
    {
      "doubleSided": true,
      "name": "aste",
      "pbrMetallicRoughness": {
        "baseColorFactor": [
          0.410251524390244,
          0.410251524390244,
          0.410251524390244,
          1.0
        ],
        "baseColorTexture": {
          "index": 6
        },
        "metallicFactor": 0.0,
        "roughnessFactor": 0.6
      }
    },
    {
      "doubleSided": true,
      "name": "corrimo",
      "pbrMetallicRoughness": {
        "baseColorTexture": {
          "index": 7
        },
        "metallicFactor": 0.0,
        "roughnessFactor": 0.6
      }
    },
    {
      "doubleSided": true,
      "name": "folha",
      "pbrMetallicRoughness": {
        "baseColorTexture": {
          "index": 8
        },
        "metallicFactor": 0.0,
        "roughnessFactor": 0.6
      }
    }
  ],
  "meshes": [
    {
      "name": "Object_0",
      "primitives": [
        {
          "attributes": {
            "NORMAL": 1,
            "POSITION": 0,
            "TEXCOORD_0": 2
          },
          "indices": 3,
          "material": 0,
          "mode": 4
        }
      ]
    },
    {
      "name": "Object_1",
      "primitives": [
        {
          "attributes": {
            "NORMAL": 5,
            "POSITION": 4,
            "TEXCOORD_0": 6
          },
          "indices": 7,
          "material": 1,
          "mode": 4
        }
      ]
    },
    {
      "name": "Object_2",
      "primitives": [
        {
          "attributes": {
            "NORMAL": 9,
            "POSITION": 8,
            "TEXCOORD_0": 10
          },
          "indices": 11,
          "material": 2,
          "mode": 4
        }
      ]
    },
    {
      "name": "Object_3",
      "primitives": [
        {
          "attributes": {
            "NORMAL": 13,
            "POSITION": 12,
            "TEXCOORD_0": 14
          },
          "indices": 15,
          "material": 3,
          "mode": 4
        }
      ]
    },
    {
      "name": "Object_4",
      "primitives": [
        {
          "attributes": {
            "NORMAL": 17,
            "POSITION": 16,
            "TEXCOORD_0": 18
          },
          "indices": 19,
          "material": 4,
          "mode": 4
        }
      ]
    },
    {
      "name": "Object_5",
      "primitives": [
        {
          "attributes": {
            "NORMAL": 21,
            "POSITION": 20,
            "TEXCOORD_0": 22
          },
          "indices": 23,
          "material": 5,
          "mode": 4
        }
      ]
    },
    {
      "name": "Object_6",
      "primitives": [
        {
          "attributes": {
            "NORMAL": 25,
            "POSITION": 24,
            "TEXCOORD_0": 26
          },
          "indices": 27,
          "material": 6,
          "mode": 4
        }
      ]
    },
    {
      "name": "Object_7",
      "primitives": [
        {
          "attributes": {
            "NORMAL": 29,
            "POSITION": 28,
            "TEXCOORD_0": 30
          },
          "indices": 31,
          "material": 7,
          "mode": 4
        }
      ]
    },
    {
      "name": "Object_8",
      "primitives": [
        {
          "attributes": {
            "NORMAL": 33,
            "POSITION": 32,
            "TEXCOORD_0": 34
          },
          "indices": 35,
          "material": 8,
          "mode": 4
        }
      ]
    },
    {
      "name": "Object_9",
      "primitives": [
        {
          "attributes": {
            "NORMAL": 37,
            "POSITION": 36,
            "TEXCOORD_0": 38
          },
          "indices": 39,
          "material": 9,
          "mode": 4
        }
      ]
    }
  ],
  "nodes": [
    {
      "children": [
        1
      ],
      "matrix": [
        1.0,
        0.0,
        0.0,
        0.0,
        0.0,
        -7.482214277865218e-05,
        1.0,
        0.0,
        0.0,
        -1.0,
        -7.482214277865218e-05,
        0.0,
        0.0,
        118.35230255126953,
        25.96088600158694,
        1.0
      ],
      "name": "Sketchfab_model"
    },
    {
      "children": [
        2
      ],
      "matrix": [
        1.0,
        0.0,
        0.0,
        0.0,
        0.0,
        1.0,
        0.0,
        0.0,
        0.0,
        0.0,
        1.0,
        0.0,
        0.0,
        -2.755279541015625,
        -50.40721893310547,
        1.0
      ],
      "name": "Outdoor"
    },
    {
      "children": [
        3,
        4,
        5,
        6,
        7,
        8,
        9,
        10,
        11,
        12
      ],
      "matrix": [
        -1.0,
        0.0,
        -6.278329465203569e-07,
        0.0,
        0.0,
        1.0,
        0.0,
        0.0,
        6.278329465203569e-07,
        0.0,
        -1.0,
        0.0,
        -17.402362823486328,
        7.8253374099731445,
        74.66480255126953,
        1.0
      ],
      "name": "lamp"
    },
    {
      "mesh": 0,
      "name": "Object_3"
    },
    {
      "mesh": 1,
      "name": "Object_4"
    },
    {
      "mesh": 2,
      "name": "Object_5"
    },
    {
      "mesh": 3,
      "name": "Object_6"
    },
    {
      "mesh": 4,
      "name": "Object_7"
    },
    {
      "mesh": 5,
      "name": "Object_8"
    },
    {
      "mesh": 6,
      "name": "Object_9"
    },
    {
      "mesh": 7,
      "name": "Object_10"
    },
    {
      "mesh": 8,
      "name": "Object_11"
    },
    {
      "mesh": 9,
      "name": "Object_12"
    }
  ],
  "samplers": [
    {
      "magFilter": 9729,
      "minFilter": 9987,
      "wrapS": 10497,
      "wrapT": 10497
    }
  ],
  "scene": 0,
  "scenes": [
    {
      "name": "Sketchfab_Scene",
      "nodes": [
        0
      ]
    }
  ],
  "textures": [
    {
      "sampler": 0,
      "source": 0
    },
    {
      "sampler": 0,
      "source": 1
    },
    {
      "sampler": 0,
      "source": 2
    },
    {
      "sampler": 0,
      "source": 3
    },
    {
      "sampler": 0,
      "source": 4
    },
    {
      "sampler": 0,
      "source": 5
    },
    {
      "sampler": 0,
      "source": 6
    },
    {
      "sampler": 0,
      "source": 7
    },
    {
      "sampler": 0,
      "source": 8
    }
  ]
}
